<?xml version="1.0" encoding="utf-8" standalone="no"?>
<!DOCTYPE svg PUBLIC "-//W3C//DTD SVG 1.1//EN"
  "http://www.w3.org/Graphics/SVG/1.1/DTD/svg11.dtd">
<svg xmlns:xlink="http://www.w3.org/1999/xlink" width="288pt" height="216pt" viewBox="0 0 288 216" xmlns="http://www.w3.org/2000/svg" version="1.1">
 <metadata>
  <rdf:RDF xmlns:dc="http://purl.org/dc/elements/1.1/" xmlns:cc="http://creativecommons.org/ns#" xmlns:rdf="http://www.w3.org/1999/02/22-rdf-syntax-ns#">
   <cc:Work>
    <dc:type rdf:resource="http://purl.org/dc/dcmitype/StillImage"/>
    <dc:date>2024-09-25T09:08:06.251537</dc:date>
    <dc:format>image/svg+xml</dc:format>
    <dc:creator>
     <cc:Agent>
      <dc:title>Matplotlib v3.8.2, https://matplotlib.org/</dc:title>
     </cc:Agent>
    </dc:creator>
   </cc:Work>
  </rdf:RDF>
 </metadata>
 <defs>
  <style type="text/css">*{stroke-linejoin: round; stroke-linecap: butt}</style>
 </defs>
 <g id="figure_1">
  <g id="patch_1">
   <path d="M 0 216 
L 288 216 
L 288 0 
L 0 0 
z
" style="fill: #ffffff"/>
  </g>
  <g id="axes_1">
   <g id="patch_2">
    <path d="M 50.87281 169.458056 
L 275.04 169.458056 
L 275.04 12.96 
L 50.87281 12.96 
z
" style="fill: #ffffff"/>
   </g>
   <g id="patch_3">
    <path d="M 58.549768 169.458056 
L 62.644146 169.458056 
L 62.644146 169.458056 
L 58.549768 169.458056 
z
" clip-path="url(#p5dddf8ec8c)" style="fill: #1f77b4"/>
   </g>
   <g id="patch_4">
    <path d="M 89.257603 169.458056 
L 93.351981 169.458056 
L 93.351981 169.458056 
L 89.257603 169.458056 
z
" clip-path="url(#p5dddf8ec8c)" style="fill: #1f77b4"/>
   </g>
   <g id="patch_5">
    <path d="M 119.965437 169.458056 
L 124.059815 169.458056 
L 124.059815 169.458056 
L 119.965437 169.458056 
z
" clip-path="url(#p5dddf8ec8c)" style="fill: #1f77b4"/>
   </g>
   <g id="patch_6">
    <path d="M 150.673271 169.458056 
L 154.767649 169.458056 
L 154.767649 169.458056 
L 150.673271 169.458056 
z
" clip-path="url(#p5dddf8ec8c)" style="fill: #1f77b4"/>
   </g>
   <g id="patch_7">
    <path d="M 181.381105 169.458056 
L 185.475483 169.458056 
L 185.475483 169.458056 
L 181.381105 169.458056 
z
" clip-path="url(#p5dddf8ec8c)" style="fill: #1f77b4"/>
   </g>
   <g id="patch_8">
    <path d="M 212.08894 169.458056 
L 216.183318 169.458056 
L 216.183318 169.458056 
L 212.08894 169.458056 
z
" clip-path="url(#p5dddf8ec8c)" style="fill: #1f77b4"/>
   </g>
   <g id="patch_9">
    <path d="M 242.796774 169.458056 
L 246.891152 169.458056 
L 246.891152 169.458056 
L 242.796774 169.458056 
z
" clip-path="url(#p5dddf8ec8c)" style="fill: #1f77b4"/>
   </g>
   <g id="patch_10">
    <path d="M 62.644146 169.458056 
L 66.738524 169.458056 
L 66.738524 169.458056 
L 62.644146 169.458056 
z
" clip-path="url(#p5dddf8ec8c)" style="fill: #8c564b"/>
   </g>
   <g id="patch_11">
    <path d="M 93.351981 169.458056 
L 97.446359 169.458056 
L 97.446359 169.458056 
L 93.351981 169.458056 
z
" clip-path="url(#p5dddf8ec8c)" style="fill: #8c564b"/>
   </g>
   <g id="patch_12">
    <path d="M 124.059815 169.458056 
L 128.154193 169.458056 
L 128.154193 169.458056 
L 124.059815 169.458056 
z
" clip-path="url(#p5dddf8ec8c)" style="fill: #8c564b"/>
   </g>
   <g id="patch_13">
    <path d="M 154.767649 169.458056 
L 158.862027 169.458056 
L 158.862027 169.458056 
L 154.767649 169.458056 
z
" clip-path="url(#p5dddf8ec8c)" style="fill: #8c564b"/>
   </g>
   <g id="patch_14">
    <path d="M 185.475483 169.458056 
L 189.569861 169.458056 
L 189.569861 169.458056 
L 185.475483 169.458056 
z
" clip-path="url(#p5dddf8ec8c)" style="fill: #8c564b"/>
   </g>
   <g id="patch_15">
    <path d="M 216.183318 169.458056 
L 220.277696 169.458056 
L 220.277696 169.458056 
L 216.183318 169.458056 
z
" clip-path="url(#p5dddf8ec8c)" style="fill: #8c564b"/>
   </g>
   <g id="patch_16">
    <path d="M 246.891152 169.458056 
L 250.98553 169.458056 
L 250.98553 169.458056 
L 246.891152 169.458056 
z
" clip-path="url(#p5dddf8ec8c)" style="fill: #8c564b"/>
   </g>
   <g id="patch_17">
    <path d="M 66.738524 169.458056 
L 70.832902 169.458056 
L 70.832902 169.458056 
L 66.738524 169.458056 
z
" clip-path="url(#p5dddf8ec8c)" style="fill: #2ca02c"/>
   </g>
   <g id="patch_18">
    <path d="M 97.446359 169.458056 
L 101.540736 169.458056 
L 101.540736 169.458056 
L 97.446359 169.458056 
z
" clip-path="url(#p5dddf8ec8c)" style="fill: #2ca02c"/>
   </g>
   <g id="patch_19">
    <path d="M 128.154193 169.458056 
L 132.248571 169.458056 
L 132.248571 169.458056 
L 128.154193 169.458056 
z
" clip-path="url(#p5dddf8ec8c)" style="fill: #2ca02c"/>
   </g>
   <g id="patch_20">
    <path d="M 158.862027 169.458056 
L 162.956405 169.458056 
L 162.956405 169.458056 
L 158.862027 169.458056 
z
" clip-path="url(#p5dddf8ec8c)" style="fill: #2ca02c"/>
   </g>
   <g id="patch_21">
    <path d="M 189.569861 169.458056 
L 193.664239 169.458056 
L 193.664239 169.458056 
L 189.569861 169.458056 
z
" clip-path="url(#p5dddf8ec8c)" style="fill: #2ca02c"/>
   </g>
   <g id="patch_22">
    <path d="M 220.277696 169.458056 
L 224.372073 169.458056 
L 224.372073 169.458056 
L 220.277696 169.458056 
z
" clip-path="url(#p5dddf8ec8c)" style="fill: #2ca02c"/>
   </g>
   <g id="patch_23">
    <path d="M 250.98553 169.458056 
L 255.079908 169.458056 
L 255.079908 169.458056 
L 250.98553 169.458056 
z
" clip-path="url(#p5dddf8ec8c)" style="fill: #2ca02c"/>
   </g>
   <g id="patch_24">
    <path d="M 70.832902 169.458056 
L 74.92728 169.458056 
L 74.92728 169.458056 
L 70.832902 169.458056 
z
" clip-path="url(#p5dddf8ec8c)" style="fill: #ff7f0e"/>
   </g>
   <g id="patch_25">
    <path d="M 101.540736 169.458056 
L 105.635114 169.458056 
L 105.635114 169.458056 
L 101.540736 169.458056 
z
" clip-path="url(#p5dddf8ec8c)" style="fill: #ff7f0e"/>
   </g>
   <g id="patch_26">
    <path d="M 132.248571 169.458056 
L 136.342949 169.458056 
L 136.342949 169.458056 
L 132.248571 169.458056 
z
" clip-path="url(#p5dddf8ec8c)" style="fill: #ff7f0e"/>
   </g>
   <g id="patch_27">
    <path d="M 162.956405 169.458056 
L 167.050783 169.458056 
L 167.050783 169.458056 
L 162.956405 169.458056 
z
" clip-path="url(#p5dddf8ec8c)" style="fill: #ff7f0e"/>
   </g>
   <g id="patch_28">
    <path d="M 193.664239 169.458056 
L 197.758617 169.458056 
L 197.758617 169.458056 
L 193.664239 169.458056 
z
" clip-path="url(#p5dddf8ec8c)" style="fill: #ff7f0e"/>
   </g>
   <g id="patch_29">
    <path d="M 224.372073 169.458056 
L 228.466451 169.458056 
L 228.466451 169.458056 
L 224.372073 169.458056 
z
" clip-path="url(#p5dddf8ec8c)" style="fill: #ff7f0e"/>
   </g>
   <g id="patch_30">
    <path d="M 255.079908 169.458056 
L 259.174286 169.458056 
L 259.174286 169.458056 
L 255.079908 169.458056 
z
" clip-path="url(#p5dddf8ec8c)" style="fill: #ff7f0e"/>
   </g>
   <g id="patch_31">
    <path d="M 74.92728 169.458056 
L 79.021658 169.458056 
L 79.021658 169.458056 
L 74.92728 169.458056 
z
" clip-path="url(#p5dddf8ec8c)" style="fill: #d62728"/>
   </g>
   <g id="patch_32">
    <path d="M 105.635114 169.458056 
L 109.729492 169.458056 
L 109.729492 169.458056 
L 105.635114 169.458056 
z
" clip-path="url(#p5dddf8ec8c)" style="fill: #d62728"/>
   </g>
   <g id="patch_33">
    <path d="M 136.342949 169.458056 
L 140.437326 169.458056 
L 140.437326 169.458056 
L 136.342949 169.458056 
z
" clip-path="url(#p5dddf8ec8c)" style="fill: #d62728"/>
   </g>
   <g id="patch_34">
    <path d="M 167.050783 169.458056 
L 171.145161 169.458056 
L 171.145161 169.458056 
L 167.050783 169.458056 
z
" clip-path="url(#p5dddf8ec8c)" style="fill: #d62728"/>
   </g>
   <g id="patch_35">
    <path d="M 197.758617 169.458056 
L 201.852995 169.458056 
L 201.852995 169.458056 
L 197.758617 169.458056 
z
" clip-path="url(#p5dddf8ec8c)" style="fill: #d62728"/>
   </g>
   <g id="patch_36">
    <path d="M 228.466451 169.458056 
L 232.560829 169.458056 
L 232.560829 169.458056 
L 228.466451 169.458056 
z
" clip-path="url(#p5dddf8ec8c)" style="fill: #d62728"/>
   </g>
   <g id="patch_37">
    <path d="M 259.174286 169.458056 
L 263.268664 169.458056 
L 263.268664 169.458056 
L 259.174286 169.458056 
z
" clip-path="url(#p5dddf8ec8c)" style="fill: #d62728"/>
   </g>
   <g id="patch_38">
    <path d="M 79.021658 169.458056 
L 83.116036 169.458056 
L 83.116036 35.361915 
L 79.021658 35.361915 
z
" clip-path="url(#p5dddf8ec8c)" style="fill: #9467bd"/>
   </g>
   <g id="patch_39">
    <path d="M 109.729492 169.458056 
L 113.82387 169.458056 
L 113.82387 44.227896 
L 109.729492 44.227896 
z
" clip-path="url(#p5dddf8ec8c)" style="fill: #9467bd"/>
   </g>
   <g id="patch_40">
    <path d="M 140.437326 169.458056 
L 144.531704 169.458056 
L 144.531704 35.310765 
L 140.437326 35.310765 
z
" clip-path="url(#p5dddf8ec8c)" style="fill: #9467bd"/>
   </g>
   <g id="patch_41">
    <path d="M 171.145161 169.458056 
L 175.239539 169.458056 
L 175.239539 24.377368 
L 171.145161 24.377368 
z
" clip-path="url(#p5dddf8ec8c)" style="fill: #9467bd"/>
   </g>
   <g id="patch_42">
    <path d="M 201.852995 169.458056 
L 205.947373 169.458056 
L 205.947373 48.557483 
L 201.852995 48.557483 
z
" clip-path="url(#p5dddf8ec8c)" style="fill: #9467bd"/>
   </g>
   <g id="patch_43">
    <path d="M 232.560829 169.458056 
L 236.655207 169.458056 
L 236.655207 20.412288 
L 232.560829 20.412288 
z
" clip-path="url(#p5dddf8ec8c)" style="fill: #9467bd"/>
   </g>
   <g id="patch_44">
    <path d="M 263.268664 169.458056 
L 267.363041 169.458056 
L 267.363041 57.67373 
L 263.268664 57.67373 
z
" clip-path="url(#p5dddf8ec8c)" style="fill: #9467bd"/>
   </g>
   <g id="matplotlib.axis_1">
    <g id="xtick_1">
     <g id="line2d_1">
      <path d="M 70.832902 169.458056 
L 70.832902 12.96 
" clip-path="url(#p5dddf8ec8c)" style="fill: none; stroke: #b0b0b0; stroke-width: 0.8; stroke-linecap: square"/>
     </g>
     <g id="line2d_2">
      <defs>
       <path id="m600ecfa3df" d="M 0 0 
L 0 3.5 
" style="stroke: #000000; stroke-width: 0.8"/>
      </defs>
      <g>
       <use xlink:href="#m600ecfa3df" x="70.832902" y="169.458056" style="stroke: #000000; stroke-width: 0.8"/>
      </g>
     </g>
     <g id="text_1">
      <!-- 146 -->
      <g transform="translate(62.053417 184.760236) scale(0.12 -0.12)">
       <defs>
        <path id="CMR17-31" d="M 1702 4058 
C 1702 4192 1696 4192 1606 4192 
C 1357 3916 979 3827 621 3827 
C 602 3827 570 3827 563 3808 
C 557 3795 557 3782 557 3648 
C 755 3648 1088 3686 1344 3839 
L 1344 461 
C 1344 236 1331 160 781 160 
L 589 160 
L 589 0 
C 896 0 1216 0 1523 0 
C 1830 0 2150 0 2458 0 
L 2458 160 
L 2266 160 
C 1715 160 1702 230 1702 458 
L 1702 4058 
z
" transform="scale(0.015625)"/>
        <path id="CMR17-34" d="M 2150 4122 
C 2150 4256 2144 4256 2029 4256 
L 128 1254 
L 128 1088 
L 1779 1088 
L 1779 457 
C 1779 224 1766 160 1318 160 
L 1197 160 
L 1197 0 
C 1402 0 1747 0 1965 0 
C 2182 0 2528 0 2733 0 
L 2733 160 
L 2611 160 
C 2163 160 2150 224 2150 457 
L 2150 1088 
L 2803 1088 
L 2803 1254 
L 2150 1254 
L 2150 4122 
z
M 1798 3703 
L 1798 1254 
L 256 1254 
L 1798 3703 
z
" transform="scale(0.015625)"/>
        <path id="CMR17-36" d="M 678 2176 
C 678 3690 1395 4032 1811 4032 
C 1946 4032 2272 4009 2400 3776 
C 2298 3776 2106 3776 2106 3553 
C 2106 3381 2246 3323 2336 3323 
C 2394 3323 2566 3348 2566 3560 
C 2566 3954 2246 4179 1805 4179 
C 1043 4179 243 3390 243 1984 
C 243 253 966 -128 1478 -128 
C 2099 -128 2688 427 2688 1283 
C 2688 2081 2170 2662 1517 2662 
C 1126 2662 838 2407 678 1960 
L 678 2176 
z
M 1478 25 
C 691 25 691 1200 691 1436 
C 691 1896 909 2560 1504 2560 
C 1613 2560 1926 2560 2138 2120 
C 2253 1870 2253 1609 2253 1289 
C 2253 944 2253 690 2118 434 
C 1978 171 1773 25 1478 25 
z
" transform="scale(0.015625)"/>
       </defs>
       <use xlink:href="#CMR17-31" transform="scale(0.996264)"/>
       <use xlink:href="#CMR17-34" transform="translate(45.690477 0) scale(0.996264)"/>
       <use xlink:href="#CMR17-36" transform="translate(91.380954 0) scale(0.996264)"/>
      </g>
     </g>
    </g>
    <g id="xtick_2">
     <g id="line2d_3">
      <path d="M 101.540736 169.458056 
L 101.540736 12.96 
" clip-path="url(#p5dddf8ec8c)" style="fill: none; stroke: #b0b0b0; stroke-width: 0.8; stroke-linecap: square"/>
     </g>
     <g id="line2d_4">
      <g>
       <use xlink:href="#m600ecfa3df" x="101.540736" y="169.458056" style="stroke: #000000; stroke-width: 0.8"/>
      </g>
     </g>
     <g id="text_2">
      <!-- 219 -->
      <g transform="translate(92.761251 184.760236) scale(0.12 -0.12)">
       <defs>
        <path id="CMR17-32" d="M 2669 989 
L 2554 989 
C 2490 536 2438 459 2413 420 
C 2381 369 1920 369 1830 369 
L 602 369 
C 832 619 1280 1072 1824 1597 
C 2214 1967 2669 2402 2669 3035 
C 2669 3790 2067 4224 1395 4224 
C 691 4224 262 3604 262 3030 
C 262 2780 448 2748 525 2748 
C 589 2748 781 2787 781 3010 
C 781 3207 614 3264 525 3264 
C 486 3264 448 3258 422 3245 
C 544 3790 915 4058 1306 4058 
C 1862 4058 2227 3617 2227 3035 
C 2227 2479 1901 2000 1536 1584 
L 262 146 
L 262 0 
L 2515 0 
L 2669 989 
z
" transform="scale(0.015625)"/>
        <path id="CMR17-39" d="M 2253 1864 
C 2253 464 1670 31 1190 31 
C 1043 31 685 31 538 294 
C 704 268 826 357 826 518 
C 826 692 685 749 595 749 
C 538 749 365 723 365 506 
C 365 71 742 -128 1203 -128 
C 1939 -128 2688 674 2688 2073 
C 2688 3817 1971 4179 1485 4179 
C 851 4179 243 3628 243 2778 
C 243 1991 762 1408 1414 1408 
C 1952 1408 2189 1903 2253 2112 
L 2253 1864 
z
M 1427 1510 
C 1254 1510 1011 1542 813 1922 
C 678 2169 678 2461 678 2771 
C 678 3146 678 3405 858 3684 
C 947 3817 1114 4032 1485 4032 
C 2240 4032 2240 2885 2240 2632 
C 2240 2182 2035 1510 1427 1510 
z
" transform="scale(0.015625)"/>
       </defs>
       <use xlink:href="#CMR17-32" transform="scale(0.996264)"/>
       <use xlink:href="#CMR17-31" transform="translate(45.690477 0) scale(0.996264)"/>
       <use xlink:href="#CMR17-39" transform="translate(91.380954 0) scale(0.996264)"/>
      </g>
     </g>
    </g>
    <g id="xtick_3">
     <g id="line2d_5">
      <path d="M 132.248571 169.458056 
L 132.248571 12.96 
" clip-path="url(#p5dddf8ec8c)" style="fill: none; stroke: #b0b0b0; stroke-width: 0.8; stroke-linecap: square"/>
     </g>
     <g id="line2d_6">
      <g>
       <use xlink:href="#m600ecfa3df" x="132.248571" y="169.458056" style="stroke: #000000; stroke-width: 0.8"/>
      </g>
     </g>
     <g id="text_3">
      <!-- 292 -->
      <g transform="translate(123.469085 184.760236) scale(0.12 -0.12)">
       <use xlink:href="#CMR17-32" transform="scale(0.996264)"/>
       <use xlink:href="#CMR17-39" transform="translate(45.690477 0) scale(0.996264)"/>
       <use xlink:href="#CMR17-32" transform="translate(91.380954 0) scale(0.996264)"/>
      </g>
     </g>
    </g>
    <g id="xtick_4">
     <g id="line2d_7">
      <path d="M 162.956405 169.458056 
L 162.956405 12.96 
" clip-path="url(#p5dddf8ec8c)" style="fill: none; stroke: #b0b0b0; stroke-width: 0.8; stroke-linecap: square"/>
     </g>
     <g id="line2d_8">
      <g>
       <use xlink:href="#m600ecfa3df" x="162.956405" y="169.458056" style="stroke: #000000; stroke-width: 0.8"/>
      </g>
     </g>
     <g id="text_4">
      <!-- 365 -->
      <g transform="translate(154.17692 184.760236) scale(0.12 -0.12)">
       <defs>
        <path id="CMR17-33" d="M 1414 2157 
C 1984 2157 2234 1662 2234 1090 
C 2234 320 1824 25 1453 25 
C 1114 25 563 194 390 693 
C 422 680 454 680 486 680 
C 640 680 755 782 755 948 
C 755 1133 614 1216 486 1216 
C 378 1216 211 1165 211 926 
C 211 335 787 -128 1466 -128 
C 2176 -128 2720 430 2720 1085 
C 2720 1707 2208 2157 1600 2227 
C 2086 2328 2554 2756 2554 3329 
C 2554 3820 2048 4179 1472 4179 
C 890 4179 378 3829 378 3329 
C 378 3110 544 3072 627 3072 
C 762 3072 877 3155 877 3321 
C 877 3486 762 3569 627 3569 
C 602 3569 570 3569 544 3557 
C 730 3959 1235 4032 1459 4032 
C 1683 4032 2106 3925 2106 3320 
C 2106 3143 2080 2828 1862 2550 
C 1670 2304 1453 2304 1242 2284 
C 1210 2284 1062 2269 1037 2269 
C 992 2263 966 2257 966 2208 
C 966 2163 973 2157 1101 2157 
L 1414 2157 
z
" transform="scale(0.015625)"/>
        <path id="CMR17-35" d="M 730 3692 
C 794 3666 1056 3584 1325 3584 
C 1920 3584 2246 3911 2432 4100 
C 2432 4157 2432 4192 2394 4192 
C 2387 4192 2374 4192 2323 4163 
C 2099 4058 1837 3973 1517 3973 
C 1325 3973 1037 3999 723 4139 
C 653 4171 640 4171 634 4171 
C 602 4171 595 4164 595 4037 
L 595 2203 
C 595 2089 595 2057 659 2057 
C 691 2057 704 2070 736 2114 
C 941 2401 1222 2522 1542 2522 
C 1766 2522 2246 2382 2246 1289 
C 2246 1085 2246 715 2054 421 
C 1894 159 1645 25 1370 25 
C 947 25 518 320 403 814 
C 429 807 480 795 506 795 
C 589 795 749 840 749 1038 
C 749 1210 627 1280 506 1280 
C 358 1280 262 1190 262 1011 
C 262 454 704 -128 1382 -128 
C 2042 -128 2669 440 2669 1264 
C 2669 2030 2170 2624 1549 2624 
C 1222 2624 947 2503 730 2274 
L 730 3692 
z
" transform="scale(0.015625)"/>
       </defs>
       <use xlink:href="#CMR17-33" transform="scale(0.996264)"/>
       <use xlink:href="#CMR17-36" transform="translate(45.690477 0) scale(0.996264)"/>
       <use xlink:href="#CMR17-35" transform="translate(91.380954 0) scale(0.996264)"/>
      </g>
     </g>
    </g>
    <g id="xtick_5">
     <g id="line2d_9">
      <path d="M 193.664239 169.458056 
L 193.664239 12.96 
" clip-path="url(#p5dddf8ec8c)" style="fill: none; stroke: #b0b0b0; stroke-width: 0.8; stroke-linecap: square"/>
     </g>
     <g id="line2d_10">
      <g>
       <use xlink:href="#m600ecfa3df" x="193.664239" y="169.458056" style="stroke: #000000; stroke-width: 0.8"/>
      </g>
     </g>
     <g id="text_5">
      <!-- 438 -->
      <g transform="translate(184.884754 184.760236) scale(0.12 -0.12)">
       <defs>
        <path id="CMR17-38" d="M 1741 2264 
C 2144 2467 2554 2773 2554 3263 
C 2554 3841 1990 4179 1472 4179 
C 890 4179 378 3759 378 3180 
C 378 3021 416 2747 666 2505 
C 730 2442 998 2251 1171 2130 
C 883 1983 211 1634 211 934 
C 211 279 838 -128 1459 -128 
C 2144 -128 2720 362 2720 1010 
C 2720 1590 2330 1857 2074 2029 
L 1741 2264 
z
M 902 2822 
C 851 2854 595 3051 595 3351 
C 595 3739 998 4032 1459 4032 
C 1965 4032 2336 3676 2336 3262 
C 2336 2669 1670 2331 1638 2331 
C 1632 2331 1626 2331 1574 2370 
L 902 2822 
z
M 2080 1519 
C 2176 1449 2483 1240 2483 851 
C 2483 381 2010 25 1472 25 
C 890 25 448 438 448 940 
C 448 1443 838 1862 1280 2060 
L 2080 1519 
z
" transform="scale(0.015625)"/>
       </defs>
       <use xlink:href="#CMR17-34" transform="scale(0.996264)"/>
       <use xlink:href="#CMR17-33" transform="translate(45.690477 0) scale(0.996264)"/>
       <use xlink:href="#CMR17-38" transform="translate(91.380954 0) scale(0.996264)"/>
      </g>
     </g>
    </g>
    <g id="xtick_6">
     <g id="line2d_11">
      <path d="M 224.372073 169.458056 
L 224.372073 12.96 
" clip-path="url(#p5dddf8ec8c)" style="fill: none; stroke: #b0b0b0; stroke-width: 0.8; stroke-linecap: square"/>
     </g>
     <g id="line2d_12">
      <g>
       <use xlink:href="#m600ecfa3df" x="224.372073" y="169.458056" style="stroke: #000000; stroke-width: 0.8"/>
      </g>
     </g>
     <g id="text_6">
      <!-- 657 -->
      <g transform="translate(215.592588 184.760236) scale(0.12 -0.12)">
       <defs>
        <path id="CMR17-37" d="M 2886 3941 
L 2886 4081 
L 1382 4081 
C 634 4081 621 4165 595 4288 
L 480 4288 
L 294 3094 
L 410 3094 
C 429 3215 474 3540 550 3661 
C 589 3712 1062 3712 1171 3712 
L 2579 3712 
L 1869 2661 
C 1395 1954 1069 999 1069 165 
C 1069 89 1069 -128 1299 -128 
C 1530 -128 1530 89 1530 171 
L 1530 465 
C 1530 1508 1709 2196 2003 2636 
L 2886 3941 
z
" transform="scale(0.015625)"/>
       </defs>
       <use xlink:href="#CMR17-36" transform="scale(0.996264)"/>
       <use xlink:href="#CMR17-35" transform="translate(45.690477 0) scale(0.996264)"/>
       <use xlink:href="#CMR17-37" transform="translate(91.380954 0) scale(0.996264)"/>
      </g>
     </g>
    </g>
    <g id="xtick_7">
     <g id="line2d_13">
      <path d="M 255.079908 169.458056 
L 255.079908 12.96 
" clip-path="url(#p5dddf8ec8c)" style="fill: none; stroke: #b0b0b0; stroke-width: 0.8; stroke-linecap: square"/>
     </g>
     <g id="line2d_14">
      <g>
       <use xlink:href="#m600ecfa3df" x="255.079908" y="169.458056" style="stroke: #000000; stroke-width: 0.8"/>
      </g>
     </g>
     <g id="text_7">
      <!-- 876 -->
      <g transform="translate(246.300422 184.760236) scale(0.12 -0.12)">
       <use xlink:href="#CMR17-38" transform="scale(0.996264)"/>
       <use xlink:href="#CMR17-37" transform="translate(45.690477 0) scale(0.996264)"/>
       <use xlink:href="#CMR17-36" transform="translate(91.380954 0) scale(0.996264)"/>
      </g>
     </g>
    </g>
    <g id="text_8">
     <!-- $|C|$ -->
     <g transform="translate(155.018711 200.051208) scale(0.12 -0.12)">
      <defs>
       <path id="CMSY10-6a" d="M 1018 4570 
C 1018 4685 1018 4800 890 4800 
C 762 4800 762 4685 762 4570 
L 762 -1370 
C 762 -1485 762 -1600 890 -1600 
C 1018 -1600 1018 -1485 1018 -1370 
L 1018 4570 
z
" transform="scale(0.015625)"/>
       <path id="CMMI12-43" d="M 4781 4423 
C 4781 4480 4736 4480 4723 4480 
C 4710 4480 4685 4480 4634 4416 
L 4192 3882 
C 3968 4264 3616 4480 3136 4480 
C 1754 4480 320 3088 320 1595 
C 320 533 1069 -128 2003 -128 
C 2515 -128 2963 88 3334 400 
C 3891 863 4058 1481 4058 1531 
C 4058 1588 4006 1588 3987 1588 
C 3930 1588 3923 1550 3910 1524 
C 3616 534 2752 57 2112 57 
C 1434 57 845 489 845 1391 
C 845 1595 909 2700 1632 3532 
C 1984 3939 2586 4295 3194 4295 
C 3898 4295 4211 3717 4211 3068 
C 4211 2903 4192 2764 4192 2738 
C 4192 2681 4256 2681 4275 2681 
C 4346 2681 4352 2687 4378 2801 
L 4781 4423 
z
" transform="scale(0.015625)"/>
      </defs>
      <use xlink:href="#CMSY10-6a" transform="scale(0.996264)"/>
      <use xlink:href="#CMMI12-43" transform="translate(27.674085 0) scale(0.996264)"/>
      <use xlink:href="#CMSY10-6a" transform="translate(104.620931 0) scale(0.996264)"/>
     </g>
    </g>
   </g>
   <g id="matplotlib.axis_2">
    <g id="ytick_1">
     <g id="line2d_15">
      <path d="M 50.87281 169.458056 
L 275.04 169.458056 
" clip-path="url(#p5dddf8ec8c)" style="fill: none; stroke: #b0b0b0; stroke-width: 0.8; stroke-linecap: square"/>
     </g>
     <g id="line2d_16">
      <defs>
       <path id="m917b495289" d="M 0 0 
L -3.5 0 
" style="stroke: #000000; stroke-width: 0.8"/>
      </defs>
      <g>
       <use xlink:href="#m917b495289" x="50.87281" y="169.458056" style="stroke: #000000; stroke-width: 0.8"/>
      </g>
     </g>
     <g id="text_9">
      <!-- $\mathdefault{0.0}$ -->
      <g transform="translate(28.915168 173.609146) scale(0.12 -0.12)">
       <defs>
        <path id="CMR17-30" d="M 2688 2025 
C 2688 2416 2682 3080 2413 3591 
C 2176 4039 1798 4198 1466 4198 
C 1158 4198 768 4058 525 3597 
C 269 3118 243 2524 243 2025 
C 243 1661 250 1106 448 619 
C 723 -39 1216 -128 1466 -128 
C 1760 -128 2208 -7 2470 600 
C 2662 1042 2688 1559 2688 2025 
z
M 1466 -26 
C 1056 -26 813 325 723 812 
C 653 1188 653 1738 653 2096 
C 653 2588 653 2997 736 3387 
C 858 3929 1216 4096 1466 4096 
C 1728 4096 2067 3923 2189 3400 
C 2272 3036 2278 2607 2278 2096 
C 2278 1680 2278 1169 2202 792 
C 2067 95 1690 -26 1466 -26 
z
" transform="scale(0.015625)"/>
        <path id="CMMI12-3a" d="M 1178 307 
C 1178 492 1024 619 870 619 
C 685 619 557 466 557 313 
C 557 128 710 0 864 0 
C 1050 0 1178 153 1178 307 
z
" transform="scale(0.015625)"/>
       </defs>
       <use xlink:href="#CMR17-30" transform="scale(0.996264)"/>
       <use xlink:href="#CMMI12-3a" transform="translate(45.690477 0) scale(0.996264)"/>
       <use xlink:href="#CMR17-30" transform="translate(72.787654 0) scale(0.996264)"/>
      </g>
     </g>
    </g>
    <g id="ytick_2">
     <g id="line2d_17">
      <path d="M 50.87281 126.863405 
L 275.04 126.863405 
" clip-path="url(#p5dddf8ec8c)" style="fill: none; stroke: #b0b0b0; stroke-width: 0.8; stroke-linecap: square"/>
     </g>
     <g id="line2d_18">
      <g>
       <use xlink:href="#m917b495289" x="50.87281" y="126.863405" style="stroke: #000000; stroke-width: 0.8"/>
      </g>
     </g>
     <g id="text_10">
      <!-- $\mathdefault{0.2}$ -->
      <g transform="translate(28.915168 131.014495) scale(0.12 -0.12)">
       <use xlink:href="#CMR17-30" transform="scale(0.996264)"/>
       <use xlink:href="#CMMI12-3a" transform="translate(45.690477 0) scale(0.996264)"/>
       <use xlink:href="#CMR17-32" transform="translate(72.787654 0) scale(0.996264)"/>
      </g>
     </g>
    </g>
    <g id="ytick_3">
     <g id="line2d_19">
      <path d="M 50.87281 84.268754 
L 275.04 84.268754 
" clip-path="url(#p5dddf8ec8c)" style="fill: none; stroke: #b0b0b0; stroke-width: 0.8; stroke-linecap: square"/>
     </g>
     <g id="line2d_20">
      <g>
       <use xlink:href="#m917b495289" x="50.87281" y="84.268754" style="stroke: #000000; stroke-width: 0.8"/>
      </g>
     </g>
     <g id="text_11">
      <!-- $\mathdefault{0.4}$ -->
      <g transform="translate(28.915168 88.419844) scale(0.12 -0.12)">
       <use xlink:href="#CMR17-30" transform="scale(0.996264)"/>
       <use xlink:href="#CMMI12-3a" transform="translate(45.690477 0) scale(0.996264)"/>
       <use xlink:href="#CMR17-34" transform="translate(72.787654 0) scale(0.996264)"/>
      </g>
     </g>
    </g>
    <g id="ytick_4">
     <g id="line2d_21">
      <path d="M 50.87281 41.674102 
L 275.04 41.674102 
" clip-path="url(#p5dddf8ec8c)" style="fill: none; stroke: #b0b0b0; stroke-width: 0.8; stroke-linecap: square"/>
     </g>
     <g id="line2d_22">
      <g>
       <use xlink:href="#m917b495289" x="50.87281" y="41.674102" style="stroke: #000000; stroke-width: 0.8"/>
      </g>
     </g>
     <g id="text_12">
      <!-- $\mathdefault{0.6}$ -->
      <g transform="translate(28.915168 45.825192) scale(0.12 -0.12)">
       <use xlink:href="#CMR17-30" transform="scale(0.996264)"/>
       <use xlink:href="#CMMI12-3a" transform="translate(45.690477 0) scale(0.996264)"/>
       <use xlink:href="#CMR17-36" transform="translate(72.787654 0) scale(0.996264)"/>
      </g>
     </g>
    </g>
    <g id="text_13">
     <!-- $accuracy$ (avg) -->
     <g transform="translate(21.926376 129.393519) rotate(-90) scale(0.12 -0.12)">
      <defs>
       <path id="CMMI12-61" d="M 1926 760 
C 1894 651 1894 639 1805 517 
C 1664 338 1382 64 1082 64 
C 819 64 672 300 672 677 
C 672 1028 870 1743 992 2012 
C 1210 2459 1510 2689 1760 2689 
C 2182 2689 2266 2165 2266 2114 
C 2266 2108 2246 2024 2240 2012 
L 1926 760 
z
M 2336 2395 
C 2266 2561 2093 2816 1760 2816 
C 1037 2816 256 1884 256 939 
C 256 307 627 -64 1062 -64 
C 1414 -64 1715 211 1894 422 
C 1958 45 2259 -64 2451 -64 
C 2643 -64 2797 51 2912 281 
C 3014 498 3104 888 3104 913 
C 3104 945 3078 971 3040 971 
C 2982 971 2976 939 2950 843 
C 2854 466 2733 64 2470 64 
C 2285 64 2272 230 2272 358 
C 2272 505 2291 575 2349 824 
C 2394 984 2426 1124 2477 1309 
C 2714 2267 2771 2497 2771 2535 
C 2771 2625 2701 2695 2605 2695 
C 2400 2695 2349 2472 2336 2395 
z
" transform="scale(0.015625)"/>
       <path id="CMMI12-63" d="M 2502 2431 
C 2381 2431 2323 2431 2234 2355 
C 2195 2323 2125 2227 2125 2125 
C 2125 1997 2221 1920 2342 1920 
C 2496 1920 2669 2044 2669 2292 
C 2669 2588 2374 2816 1933 2816 
C 1094 2816 256 1903 256 996 
C 256 441 602 -64 1254 -64 
C 2125 -64 2675 622 2675 706 
C 2675 744 2637 776 2611 776 
C 2592 776 2586 770 2528 713 
C 2118 162 1510 64 1267 64 
C 826 64 685 446 685 764 
C 685 988 794 1605 1024 2039 
C 1190 2338 1536 2682 1939 2682 
C 2022 2682 2374 2682 2502 2431 
z
" transform="scale(0.015625)"/>
       <path id="CMMI12-75" d="M 2182 370 
C 2266 13 2573 -64 2726 -64 
C 2931 -64 3085 70 3187 287 
C 3296 517 3379 894 3379 913 
C 3379 945 3354 971 3315 971 
C 3258 971 3251 939 3226 843 
C 3110 402 2995 64 2739 64 
C 2547 64 2547 275 2547 358 
C 2547 505 2566 568 2630 837 
C 2675 1009 2720 1181 2758 1360 
L 3021 2401 
C 3066 2561 3066 2574 3066 2593 
C 3066 2689 2989 2753 2893 2753 
C 2707 2753 2662 2593 2624 2433 
C 2560 2184 2214 811 2170 588 
C 2163 588 1914 64 1446 64 
C 1114 64 1050 351 1050 588 
C 1050 952 1229 1462 1395 1890 
C 1472 2095 1504 2178 1504 2305 
C 1504 2580 1306 2816 998 2816 
C 410 2816 173 1890 173 1839 
C 173 1814 198 1782 243 1782 
C 301 1782 307 1807 333 1896 
C 486 2441 736 2682 979 2682 
C 1043 2682 1146 2682 1146 2478 
C 1146 2312 1075 2127 979 1884 
C 698 1124 666 881 666 690 
C 666 38 1158 -64 1421 -64 
C 1830 -64 2054 217 2182 370 
z
" transform="scale(0.015625)"/>
       <path id="CMMI12-72" d="M 2490 2612 
C 2291 2574 2189 2433 2189 2293 
C 2189 2139 2310 2088 2400 2088 
C 2579 2088 2726 2242 2726 2433 
C 2726 2638 2528 2816 2208 2816 
C 1952 2816 1658 2701 1389 2312 
C 1344 2650 1088 2816 832 2816 
C 582 2816 454 2625 378 2484 
C 269 2254 173 1871 173 1839 
C 173 1814 198 1782 243 1782 
C 294 1782 301 1788 339 1935 
C 435 2318 557 2689 813 2689 
C 966 2689 1011 2580 1011 2395 
C 1011 2254 947 2005 902 1807 
L 723 1118 
C 698 996 627 709 595 594 
C 550 428 480 128 480 96 
C 480 6 550 -64 646 -64 
C 717 -64 838 -19 877 109 
C 896 160 1133 1124 1171 1271 
C 1203 1411 1242 1546 1274 1686 
C 1299 1775 1325 1878 1344 1961 
C 1363 2018 1536 2331 1696 2472 
C 1773 2542 1939 2689 2202 2689 
C 2304 2689 2406 2670 2490 2612 
z
" transform="scale(0.015625)"/>
       <path id="CMMI12-79" d="M 1683 -700 
C 1510 -939 1261 -1152 947 -1152 
C 870 -1152 563 -1152 467 -889 
C 486 -895 518 -895 531 -895 
C 723 -895 851 -729 851 -582 
C 851 -435 730 -384 634 -384 
C 531 -384 307 -458 307 -759 
C 307 -1071 582 -1286 947 -1286 
C 1587 -1286 2234 -700 2413 6 
L 3040 2485 
C 3046 2517 3059 2556 3059 2594 
C 3059 2689 2982 2753 2886 2753 
C 2829 2753 2694 2727 2643 2535 
L 2170 658 
C 2138 543 2138 530 2086 460 
C 1958 281 1747 64 1440 64 
C 1082 64 1050 415 1050 588 
C 1050 952 1222 1443 1395 1903 
C 1466 2088 1504 2178 1504 2305 
C 1504 2574 1312 2816 998 2816 
C 410 2816 173 1890 173 1839 
C 173 1814 198 1782 243 1782 
C 301 1782 307 1807 333 1897 
C 486 2433 730 2689 979 2689 
C 1037 2689 1146 2689 1146 2478 
C 1146 2312 1075 2127 979 1884 
C 666 1047 666 837 666 683 
C 666 77 1101 -64 1421 -64 
C 1606 -64 1837 -6 2061 230 
L 2067 224 
C 1971 -147 1907 -392 1683 -700 
z
" transform="scale(0.015625)"/>
       <path id="CMR17-28" d="M 1958 -1561 
C 1958 -1555 1958 -1542 1939 -1523 
C 1645 -1224 858 -407 858 1581 
C 858 3569 1632 4379 1946 4697 
C 1946 4704 1958 4717 1958 4736 
C 1958 4755 1939 4768 1914 4768 
C 1843 4768 1299 4296 986 3594 
C 666 2887 576 2199 576 1588 
C 576 1128 621 351 1005 -471 
C 1312 -1135 1837 -1600 1914 -1600 
C 1946 -1600 1958 -1587 1958 -1561 
z
" transform="scale(0.015625)"/>
       <path id="CMR17-61" d="M 2304 1653 
C 2304 2072 2304 2294 2035 2543 
C 1798 2752 1523 2816 1306 2816 
C 800 2816 435 2407 435 1971 
C 435 1728 627 1728 666 1728 
C 749 1728 896 1778 896 1954 
C 896 2112 774 2181 666 2181 
C 640 2181 608 2174 589 2168 
C 723 2592 1069 2714 1293 2714 
C 1613 2714 1965 2429 1965 1885 
L 1965 1600 
C 1587 1600 1133 1549 774 1357 
C 371 1133 256 813 256 570 
C 256 77 832 -64 1171 -64 
C 1523 -64 1850 139 1990 511 
C 2003 233 2182 -18 2464 -18 
C 2598 -18 2938 70 2938 567 
L 2938 920 
L 2822 920 
L 2822 562 
C 2822 178 2650 128 2566 128 
C 2304 128 2304 458 2304 738 
L 2304 1653 
z
M 1965 870 
C 1965 317 1568 38 1216 38 
C 896 38 646 275 646 570 
C 646 761 730 1100 1101 1305 
C 1408 1478 1760 1504 1965 1504 
L 1965 870 
z
" transform="scale(0.015625)"/>
       <path id="CMR17-76" d="M 2502 2163 
C 2560 2304 2662 2560 3034 2560 
L 3034 2726 
C 2912 2726 2752 2726 2630 2726 
C 2496 2726 2285 2726 2157 2732 
L 2157 2566 
C 2317 2553 2406 2477 2406 2311 
C 2406 2253 2406 2240 2368 2151 
L 1664 377 
L 902 2286 
C 864 2369 864 2381 864 2407 
C 864 2560 1075 2560 1171 2560 
L 1171 2732 
C 1018 2726 736 2726 576 2726 
C 403 2726 205 2726 64 2732 
L 64 2560 
C 307 2560 442 2560 518 2362 
L 1446 44 
C 1485 -51 1491 -64 1549 -64 
C 1606 -64 1613 -51 1651 44 
L 2502 2163 
z
" transform="scale(0.015625)"/>
       <path id="CMR17-67" d="M 710 1164 
C 832 1068 1043 960 1299 960 
C 1805 960 2240 1357 2240 1888 
C 2240 2054 2189 2310 1997 2509 
C 2176 2692 2438 2752 2586 2752 
C 2611 2752 2650 2752 2682 2734 
C 2656 2728 2598 2703 2598 2605 
C 2598 2527 2656 2471 2739 2471 
C 2835 2471 2886 2533 2886 2614 
C 2886 2731 2790 2854 2586 2854 
C 2330 2854 2106 2738 1926 2580 
C 1734 2753 1504 2816 1299 2816 
C 794 2816 358 2419 358 1888 
C 358 1522 570 1292 634 1228 
C 442 1004 442 743 442 711 
C 442 545 506 302 723 168 
C 390 85 128 -169 128 -486 
C 128 -943 736 -1280 1466 -1280 
C 2170 -1280 2803 -956 2803 -479 
C 2803 384 1856 384 1363 384 
C 1216 384 954 384 922 391 
C 723 423 589 602 589 826 
C 589 883 589 1024 710 1164 
z
M 1299 1068 
C 736 1068 736 1760 736 1889 
C 736 2016 736 2708 1299 2708 
C 1862 2708 1862 2016 1862 1889 
C 1862 1760 1862 1068 1299 1068 
z
M 1466 -1171 
C 826 -1171 384 -835 384 -486 
C 384 -289 493 -105 634 -4 
C 794 104 858 104 1293 104 
C 1818 104 2547 104 2547 -486 
C 2547 -835 2106 -1171 1466 -1171 
z
" transform="scale(0.015625)"/>
       <path id="CMR17-29" d="M 1683 1581 
C 1683 2040 1638 2817 1254 3639 
C 947 4303 422 4768 346 4768 
C 326 4768 301 4761 301 4729 
C 301 4717 307 4710 314 4697 
C 621 4378 1402 3568 1402 1584 
C 1402 -407 627 -1217 314 -1537 
C 307 -1549 301 -1556 301 -1568 
C 301 -1600 326 -1600 346 -1600 
C 416 -1600 960 -1128 1274 -426 
C 1594 281 1683 969 1683 1581 
z
" transform="scale(0.015625)"/>
      </defs>
      <use xlink:href="#CMMI12-61" transform="scale(0.996264)"/>
      <use xlink:href="#CMMI12-63" transform="translate(51.207858 0) scale(0.996264)"/>
      <use xlink:href="#CMMI12-63" transform="translate(93.191091 0) scale(0.996264)"/>
      <use xlink:href="#CMMI12-75" transform="translate(135.174325 0) scale(0.996264)"/>
      <use xlink:href="#CMMI12-72" transform="translate(190.694655 0) scale(0.996264)"/>
      <use xlink:href="#CMMI12-61" transform="translate(237.365267 0) scale(0.996264)"/>
      <use xlink:href="#CMMI12-63" transform="translate(288.573124 0) scale(0.996264)"/>
      <use xlink:href="#CMMI12-79" transform="translate(330.556358 0) scale(0.996264)"/>
      <use xlink:href="#CMR17-28" transform="translate(411.771105 0) scale(0.996264)"/>
      <use xlink:href="#CMR17-61" transform="translate(447.051873 0) scale(0.996264)"/>
      <use xlink:href="#CMR17-76" transform="translate(490.139896 0) scale(0.996264)"/>
      <use xlink:href="#CMR17-67" transform="translate(538.432812 0) scale(0.996264)"/>
      <use xlink:href="#CMR17-29" transform="translate(584.123289 0) scale(0.996264)"/>
     </g>
    </g>
   </g>
   <g id="patch_45">
    <path d="M 50.87281 169.458056 
L 50.87281 12.96 
" style="fill: none; stroke: #000000; stroke-width: 0.8; stroke-linejoin: miter; stroke-linecap: square"/>
   </g>
   <g id="patch_46">
    <path d="M 275.04 169.458056 
L 275.04 12.96 
" style="fill: none; stroke: #000000; stroke-width: 0.8; stroke-linejoin: miter; stroke-linecap: square"/>
   </g>
   <g id="patch_47">
    <path d="M 50.87281 169.458056 
L 275.04 169.458056 
" style="fill: none; stroke: #000000; stroke-width: 0.8; stroke-linejoin: miter; stroke-linecap: square"/>
   </g>
   <g id="patch_48">
    <path d="M 50.87281 12.96 
L 275.04 12.96 
" style="fill: none; stroke: #000000; stroke-width: 0.8; stroke-linejoin: miter; stroke-linecap: square"/>
   </g>
  </g>
 </g>
 <defs>
  <clipPath id="p5dddf8ec8c">
   <rect x="50.87281" y="12.96" width="224.16719" height="156.498056"/>
  </clipPath>
 </defs>
</svg>
